<svg xmlns="http://www.w3.org/2000/svg" version="1.1" xmlns:xlink="http://www.w3.org/1999/xlink" xmlns:svgjs="http://svgjs.dev/svgjs" width="2000" height="1500" viewBox="0 0 2000 1500"><rect width="2000" height="1500" fill="#77d4fc"></rect><g transform="matrix(0.75,0,0,0.75,250.4947526236881,189.45425101214573)"><svg viewBox="0 0 330 247" data-background-color="#77d4fc" preserveAspectRatio="xMidYMid meet" height="1496" width="2000" xmlns="http://www.w3.org/2000/svg" xmlns:xlink="http://www.w3.org/1999/xlink"><g id="tight-bounds" transform="matrix(1,0,0,1,-0.10884557721138322,-0.09999999999999432)"><svg viewBox="0 0 330.21769115442277 247.2" height="247.2" width="330.21769115442277"><g><svg viewBox="0 0 330.21769115442277 247.2" height="247.2" width="330.21769115442277"><g><svg viewBox="0 0 330.21769115442277 247.2" height="247.2" width="330.21769115442277"><g id="textblocktransform"><svg viewBox="0 0 330.21769115442277 247.2" height="247.2" width="330.21769115442277" id="textblock"><g><svg viewBox="0 0 330.21769115442277 247.2" height="247.2" width="330.21769115442277"><g transform="matrix(1,0,0,1,0,0)"><svg width="330.21769115442277" viewBox="1.6 -22.15 44.55 33.349999999999994" height="247.2" data-palette-color="#000000"><path d="M11.9 11.2L11.9 11.2Q11.6 10.6 11.6 8.7 11.6 6.8 13.35-1.95L13.35-1.95Q10.2 0.6 7.55 0.6 4.9 0.6 3.25-1.5 1.6-3.6 1.6-7.75L1.6-7.75Q1.6-14.7 4.4-18.43 7.2-22.15 11.1-22.15L11.1-22.15Q13.2-22.15 16.15-21L16.15-21Q18.65-21.9 22.55-21.9L22.55-21.9Q22.7-21 22.7-19.85L22.7-19.85Q22.7-14.4 20.78-4.6 18.85 5.2 18.85 9.85L18.85 9.85Q16.15 10.95 11.9 11.2ZM13.3-19.2L13.3-19.2Q11.4-19.2 10.13-15.88 8.85-12.55 8.85-8.1 8.85-3.65 10.75-3.65L10.75-3.65Q12.45-3.65 13.95-4.95L13.95-4.95Q15.65-13.55 15.65-18.65L15.65-18.65Q14.25-19.2 13.3-19.2ZM35.35 11.2L35.35 11.2Q35.05 10.6 35.05 8.7 35.05 6.8 36.8-1.95L36.8-1.95Q33.65 0.6 31 0.6 28.35 0.6 26.7-1.5 25.05-3.6 25.05-7.75L25.05-7.75Q25.05-14.7 27.85-18.43 30.65-22.15 34.55-22.15L34.55-22.15Q36.65-22.15 39.6-21L39.6-21Q42.1-21.9 46-21.9L46-21.9Q46.15-21 46.15-19.85L46.15-19.85Q46.15-14.4 44.22-4.6 42.3 5.2 42.3 9.85L42.3 9.85Q39.6 10.95 35.35 11.2ZM36.75-19.2L36.75-19.2Q34.85-19.2 33.57-15.88 32.3-12.55 32.3-8.1 32.3-3.65 34.2-3.65L34.2-3.65Q35.9-3.65 37.4-4.95L37.4-4.95Q39.1-13.55 39.1-18.65L39.1-18.65Q37.7-19.2 36.75-19.2Z" opacity="1" transform="matrix(1,0,0,1,0,0)" fill="#000000" class="wordmark-text-0" data-fill-palette-color="primary" id="text-0"></path></svg></g></svg></g></svg></g></svg></g></svg></g><defs></defs></svg><rect width="330.21769115442277" height="247.2" fill="none" stroke="none" visibility="hidden"></rect></g></svg></g></svg>